# xmcd CD database file generated by Grip 2.96
# 
# Track frame offsets:
#       150
#       14490
#       36057
#       48750
#       60677
#       73425
#       88925
#       111130
#       131512
#       143285
#       155965
#       168305
#       183645
#       200217
#       213180
#       226240
# 
# Disc length: 3232 seconds
# 
# Revision: 0
# Processed by: cddbd v1.4PL0 Copyright (c) Steve Scherf et al.
# Submitted via: Grip 2.96
# 
DISCID=e90c9e10
DTITLE=John Denver - The Greatest Hits
DYEAR=1900
DGENRE=
TTITLE0=Take Me Home Country Roads
TTITLE1=Rocky Mountain High
TTITLE2=Annie's SOng
TTITLE3=Thank God I'm A Country Boy
TTITLE4=Farewell Andromeda
TTITLE5=Leaving On A Jet Plane
TTITLE6=Sunshine On My Shoulder
TTITLE7=Back Home Again
TTITLE8=On The Road
TTITLE9=Follow Me
TTITLE10=Sweet Surrender
TTITLE11=Calypso
TTITLE12=Fly Away
TTITLE13=Perhaps Love
TTITLE14=House Of The Rising Sun
TTITLE15=Jambalaya
EXTD=
EXTT0=
EXTT1=
EXTT2=
EXTT3=
EXTT4=
EXTT5=
EXTT6=
EXTT7=
EXTT8=
EXTT9=
EXTT10=
EXTT11=
EXTT12=
EXTT13=
EXTT14=
EXTT15=
PLAYORDER=
